<?xml version="1.0" standalone="no"?>
<!DOCTYPE svg PUBLIC "-//W3C//DTD SVG 20010904//EN"
 "http://www.w3.org/TR/2001/REC-SVG-20010904/DTD/svg10.dtd">
<svg version="1.0" xmlns="http://www.w3.org/2000/svg"
 width="512.000000pt" height="512.000000pt" viewBox="0 0 512.000000 512.000000"
 preserveAspectRatio="xMidYMid meet">
<metadata>
Created by potrace 1.14, written by Peter Selinger 2001-2017
</metadata>
<g transform="translate(0.000000,512.000000) scale(0.100000,-0.100000)"
fill="#000000" stroke="none">
<path d="M2727 4100 c-65 -32 -88 -76 -102 -195 -4 -41 -26 -187 -45 -300 -5
-33 -12 -78 -15 -100 -3 -22 -14 -94 -25 -160 -10 -66 -21 -140 -25 -165 -3
-25 -12 -83 -20 -130 -8 -47 -17 -103 -19 -125 -5 -39 -14 -100 -21 -134 -1
-9 -6 -41 -10 -71 -4 -30 -9 -64 -11 -75 -2 -11 -13 -81 -24 -155 -12 -74 -23
-146 -25 -160 -3 -14 -7 -46 -10 -71 -3 -25 -7 -55 -9 -66 -3 -12 -8 -43 -12
-70 -3 -26 -8 -57 -10 -68 -3 -11 -7 -40 -10 -65 -3 -25 -7 -52 -9 -60 -3 -8
-7 -38 -10 -65 -3 -28 -8 -57 -10 -65 -3 -8 -7 -35 -10 -60 -3 -25 -8 -56 -10
-70 -2 -14 -20 -128 -39 -255 -39 -254 -46 -298 -52 -329 -2 -11 -7 -53 -10
-92 -7 -83 10 -131 58 -166 32 -23 94 -34 133 -24 32 8 94 63 106 94 8 21 24
107 44 242 3 19 16 107 30 195 13 88 27 176 29 195 7 40 33 216 41 275 3 22 8
51 10 65 3 14 7 43 11 65 3 22 11 78 19 125 8 47 17 105 20 130 3 25 12 83 20
130 8 47 21 136 30 198 9 62 18 121 19 130 4 18 20 121 22 137 1 12 15 103 20
127 1 9 5 38 9 65 4 26 9 59 11 73 2 14 7 41 9 60 3 19 8 53 11 75 4 22 8 49
10 60 2 11 6 37 9 59 5 39 8 58 21 136 4 25 8 54 9 65 7 50 16 111 20 125 2 8
6 34 9 58 13 93 18 129 27 176 13 72 11 116 -10 162 -36 79 -126 112 -204 74z"/>
<path d="M1533 3620 c-24 -11 -90 -72 -178 -166 -77 -81 -178 -188 -225 -237
-47 -49 -103 -109 -125 -132 -63 -66 -333 -351 -421 -443 -140 -146 -149 -215
-42 -324 31 -32 264 -278 343 -363 21 -22 100 -105 175 -185 76 -80 152 -161
170 -180 276 -297 291 -309 370 -306 123 5 191 133 124 232 -15 21 -51 64 -80
94 -60 63 -123 129 -315 331 -75 79 -156 165 -180 190 -195 205 -300 319 -300
324 -1 7 56 68 291 315 87 91 174 183 195 205 20 22 101 108 180 190 199 209
213 226 226 264 43 128 -86 247 -208 191z"/>
<path d="M3455 3616 c-45 -28 -72 -67 -80 -119 -8 -46 12 -91 61 -143 21 -23
90 -96 152 -162 62 -67 130 -138 150 -159 20 -22 89 -94 152 -162 63 -68 126
-135 140 -150 178 -191 245 -264 243 -268 -1 -2 -62 -68 -136 -146 -74 -78
-151 -160 -171 -182 -51 -54 -321 -338 -371 -390 -203 -211 -225 -241 -225
-306 0 -49 37 -104 85 -128 92 -46 140 -24 287 132 63 67 130 138 149 158 40
42 251 266 324 344 28 29 109 115 180 190 72 76 152 161 178 189 67 69 81 99
74 158 -4 27 -12 57 -19 67 -14 19 -69 79 -292 315 -72 76 -148 157 -170 180
-21 22 -75 80 -120 127 -44 47 -142 150 -216 229 -181 192 -208 218 -239 233
-44 22 -92 20 -136 -7z"/>
</g>
</svg>
